<svg width="18px" height="18px" viewBox="0 0 18 18" xmlns="http://www.w3.org/2000/svg">
    <g id="DSK-+-MOB" stroke="none" stroke-width="1" fill="none" fill-rule="evenodd">
        <g id="01.1_PDP---AR/3D/360°-(DSK)" transform="translate(-485.000000, -335.000000)" fill="#000000">
            <g id="Item-page" transform="translate(0.000000, 138.000000)">
                <g id="Img-Watch" transform="translate(449.000000, 69.000000)">
                    <g id="AR" transform="translate(16.000000, 102.000000)">
                        <g transform="translate(20.000000, 26.000000)" id="Rectangle">
                            <path d="M8,0 L8,8 L0,8 L0,0 L8,0 Z M7.3,0.7 L0.7,0.7 L0.7,7.3 L7.3,7.3 L7.3,0.7 Z" fill-rule="nonzero"></path>
                            <rect x="3" y="3" width="2" height="2"></rect>
                            <path d="M18,0 L18,8 L10,8 L10,0 L18,0 Z M17.3,0.7 L10.7,0.7 L10.7,7.3 L17.3,7.3 L17.3,0.7 Z" fill-rule="nonzero"></path>
                            <rect x="13" y="3" width="2" height="2"></rect>
                            <path d="M8,10 L8,18 L0,18 L0,10 L8,10 Z M7.3,10.7 L0.7,10.7 L0.7,17.3 L7.3,17.3 L7.3,10.7 Z" fill-rule="nonzero"></path>
                            <rect x="3" y="13" width="2" height="2"></rect>
                            <path d="M14,10 L14,14 L10,14 L10,10 L14,10 Z M13.3,10.7 L10.7,10.7 L10.7,13.3 L13.3,13.3 L13.3,10.7 Z" fill-rule="nonzero"></path>
                            <path d="M18,14 L18,18 L14,18 L14,14 L18,14 Z M17.3,14.7 L14.7,14.7 L14.7,17.3 L17.3,17.3 L17.3,14.7 Z" fill-rule="nonzero"></path>
                        </g>
                    </g>
                </g>
            </g>
        </g>
    </g>
</svg>