<?xml version="1.0" encoding="utf-8"?>
<!-- Generator: Adobe Illustrator 19.2.0, SVG Export Plug-In . SVG Version: 6.00 Build 0)  -->
<svg version="1.1" id="Layer_1" xmlns="http://www.w3.org/2000/svg" xmlns:xlink="http://www.w3.org/1999/xlink" x="0px" y="0px"
	 viewBox="0 0 30 30" style="enable-background:new 0 0 30 30;" xml:space="preserve">
<title>E4FEC412-6E0D-4F90-A9FD-E8FC73E6F9DD</title>
<path d="M23,14.5c0.3,0.3,0.3,0.7,0.1,1c0,0,0,0-0.1,0.1L6.8,29.8c-0.3,0.3-0.7,0.3-1,0c-0.3-0.3-0.3-0.7,0-1c0,0,0,0,0,0l16.2-14.3
	v1.1L5.8,1.2C5.5,1,5.5,0.5,5.7,0.2C6,0,6.4-0.1,6.7,0.2c0,0,0,0,0,0L23,14.5L23,14.5z"/>
</svg>
