<?xml version="1.0" encoding="utf-8"?>
<!-- Generator: Adobe Illustrator 19.2.1, SVG Export Plug-In . SVG Version: 6.00 Build 0)  -->
<svg version="1.1" id="Layer_1" xmlns="http://www.w3.org/2000/svg" xmlns:xlink="http://www.w3.org/1999/xlink" x="0px" y="0px"
	 viewBox="0 0 30 30" style="enable-background:new 0 0 30 30;" xml:space="preserve">
<title>2F06C9FF-3C88-43AD-838A-4AFBC0BE71D4</title>
<g>
	<path d="M11,9.7V5.9c0-2.1,1.8-3.8,4-3.8s4,1.7,4,3.8v3.8c0,0.3,0.3,0.6,0.6,0.6c0.3,0,0.6-0.3,0.6-0.6V5.9c0-2.8-2.4-5-5.3-5
		c-2.9,0-5.3,2.3-5.3,5v3.8c0,0.3,0.3,0.6,0.6,0.6S11,10,11,9.7L11,9.7z"/>
	<path d="M25.5,27.9c0.3,0,0.5-0.3,0.5-0.6V8.5C26,8.2,25.8,8,25.5,8h-21C4.2,8,4,8.2,4,8.5v18.9c0,0.3,0.2,0.6,0.5,0.6L25.5,27.9
		L25.5,27.9z M25.5,29.2h-21c-1,0-1.8-0.8-1.8-1.8V8.5c0-1,0.8-1.8,1.8-1.8h21c1,0,1.8,0.8,1.8,1.8v18.9
		C27.3,28.4,26.5,29.2,25.5,29.2L25.5,29.2z"/>
</g>
</svg>
