<?xml version="1.0" encoding="utf-8"?>
<!-- Generator: Adobe Illustrator 19.2.0, SVG Export Plug-In . SVG Version: 6.00 Build 0)  -->
<svg version="1.1" id="Layer_1" xmlns="http://www.w3.org/2000/svg" xmlns:xlink="http://www.w3.org/1999/xlink" x="0px" y="0px"
	 viewBox="0 0 30 30" style="enable-background:new 0 0 30 30;" xml:space="preserve">
<style type="text/css">
	.st0{fill:#666666;}
</style>
<title>F6976A6A-73D5-45C3-8836-D083586E6480</title>
<desc>Created with sketchtool.</desc>
<g id="Symbols">
	<g id="share-page" transform="translate(-339.000000, -44.000000)">
		<g id="v1" transform="translate(239.000000, 0.000000)">
			<g id="Group-3" transform="translate(0.000000, 44.000000)">
				<path id="Instagram" class="st0" d="M115,0c-4.1,0-4.6,0-6.2,0.1c-1.6,0.1-2.7,0.3-3.6,0.7c-1,0.4-1.8,0.9-2.7,1.7
					c-0.8,0.8-1.3,1.7-1.7,2.7c-0.4,1-0.6,2-0.7,3.6c-0.1,1.6-0.1,2.1-0.1,6.2c0,4.1,0,4.6,0.1,6.2c0.1,1.6,0.3,2.7,0.7,3.6
					c0.4,1,0.9,1.8,1.7,2.7c0.8,0.8,1.7,1.3,2.7,1.7c1,0.4,2,0.6,3.6,0.7c1.6,0.1,2.1,0.1,6.2,0.1c4.1,0,4.6,0,6.2-0.1
					c1.6-0.1,2.7-0.3,3.6-0.7c1-0.4,1.8-0.9,2.7-1.7c0.8-0.8,1.3-1.7,1.7-2.7c0.4-1,0.6-2,0.7-3.6c0.1-1.6,0.1-2.1,0.1-6.2
					c0-4.1,0-4.6-0.1-6.2c-0.1-1.6-0.3-2.7-0.7-3.6c-0.4-1-0.9-1.8-1.7-2.7c-0.8-0.8-1.7-1.3-2.7-1.7c-1-0.4-2-0.6-3.6-0.7
					C119.6,0,119.1,0,115,0z M115,2.7c4,0,4.5,0,6.1,0.1c1.5,0.1,2.3,0.3,2.8,0.5c0.7,0.3,1.2,0.6,1.7,1.1c0.5,0.5,0.8,1,1.1,1.7
					c0.2,0.5,0.4,1.3,0.5,2.8c0.1,1.6,0.1,2.1,0.1,6.1c0,4,0,4.5-0.1,6.1c-0.1,1.5-0.3,2.3-0.5,2.8c-0.3,0.7-0.6,1.2-1.1,1.7
					c-0.5,0.5-1,0.8-1.7,1.1c-0.5,0.2-1.3,0.4-2.8,0.5c-1.6,0.1-2.1,0.1-6.1,0.1c-4,0-4.5,0-6.1-0.1c-1.5-0.1-2.3-0.3-2.8-0.5
					c-0.7-0.3-1.2-0.6-1.7-1.1c-0.5-0.5-0.8-1-1.1-1.7c-0.2-0.5-0.4-1.3-0.5-2.8c-0.1-1.6-0.1-2.1-0.1-6.1c0-4,0-4.5,0.1-6.1
					c0.1-1.5,0.3-2.3,0.5-2.8c0.3-0.7,0.6-1.2,1.1-1.7c0.5-0.5,1-0.8,1.7-1.1c0.5-0.2,1.3-0.4,2.8-0.5C110.5,2.7,111,2.7,115,2.7z
					 M115,7.3c-4.3,0-7.7,3.4-7.7,7.7c0,4.3,3.4,7.7,7.7,7.7c4.3,0,7.7-3.4,7.7-7.7C122.7,10.7,119.3,7.3,115,7.3z M115,20
					c-2.8,0-5-2.2-5-5c0-2.8,2.2-5,5-5c2.8,0,5,2.2,5,5C120,17.8,117.8,20,115,20z M124.8,7c0,1-0.8,1.8-1.8,1.8
					c-1,0-1.8-0.8-1.8-1.8s0.8-1.8,1.8-1.8C124,5.2,124.8,6,124.8,7z"/>
			</g>
		</g>
	</g>
</g>
</svg>
