<svg width="34" height="34" viewBox="0 0 34 34" fill="none" xmlns="http://www.w3.org/2000/svg">
<path d="M34 17C34 26.3888 26.3888 34 17 34C7.61116 34 0 26.3888 0 17C0 7.61116 7.61116 0 17 0C26.3888 0 34 7.61116 34 17Z" fill="black"/>
<path fill-rule="evenodd" clip-rule="evenodd" d="M7 13.1254H27V21.1254H7V13.1254Z" fill="black"/>
<path fill-rule="evenodd" clip-rule="evenodd" d="M7 20.9593V20.7597C7.57223 20.7265 7.83727 20.5937 7.83727 20.0951V14.0673C7.83727 13.5686 7.57223 13.4247 7.05298 13.4025V13.203H9.72363V13.4025C9.2151 13.4247 8.95006 13.5686 8.95006 14.0673V20.0951C8.95006 20.5937 9.2151 20.7265 9.78745 20.7597V20.9593H7ZM19.7926 14.3221L17.4295 21.0146H17.239L15.5636 15.984L13.5604 21.0146H13.3695L11.0698 14.0562C10.9319 13.6462 10.7624 13.4358 10.222 13.4025V13.203H12.9776V13.4025C12.437 13.4358 12.2887 13.6241 12.2887 13.8788C12.2887 14.0119 12.3627 14.2557 12.437 14.466L13.8783 18.8428L15.3094 15.1974L14.9063 13.9565C14.7794 13.5797 14.578 13.4358 14.101 13.4025V13.203H16.846V13.4025C16.2101 13.4137 16.1359 13.6352 16.1359 13.8125C16.1359 13.9342 16.1783 14.1228 16.2525 14.3333L17.6945 18.6877L19.0614 14.7985C19.2418 14.289 19.2948 13.9785 19.2948 13.8569C19.2948 13.5576 19.0721 13.4358 18.5421 13.4025V13.203H20.9057V13.4025C20.344 13.4358 20.0474 13.6129 19.7926 14.3221ZM24.191 21.1254C21.8912 21.1254 20.5664 19.4301 20.5664 17.081C20.5664 15.6628 21.3827 13.1254 24.223 13.1254C25.5057 13.1254 25.8447 13.6462 26.2896 13.6462C26.4593 13.6462 26.576 13.5576 26.6076 13.2251H26.7985L26.8829 15.5853H26.6608C26.3744 14.2336 25.4313 13.5686 24.3186 13.5686C23.7354 13.5686 23.195 13.7791 22.7709 14.2336C22.2307 14.8097 21.8912 15.7624 21.8912 17.081C21.8912 19.1309 22.7605 20.5937 24.435 20.5937C25.5583 20.5937 26.2579 20.1282 26.809 19.2196L27 19.3304C26.438 20.4716 25.5057 21.1254 24.191 21.1254Z" fill="white"/>
</svg>
