<?xml version="1.0" encoding="utf-8"?>
<!-- Generator: Adobe Illustrator 19.2.0, SVG Export Plug-In . SVG Version: 6.00 Build 0)  -->
<svg version="1.1" id="Layer_1" xmlns="http://www.w3.org/2000/svg" xmlns:xlink="http://www.w3.org/1999/xlink" x="0px" y="0px"
	 viewBox="0 0 30 30" style="enable-background:new 0 0 30 30;" xml:space="preserve">
<style type="text/css">
	.st0{fill:#666666;}
</style>
<title>F0C2EE15-35C7-4B72-A18D-C78D72644EC2</title>
<desc>Created with sketchtool.</desc>
<g id="Symbols">
	<g id="share-page" transform="translate(-389.000000, -45.000000)">
		<g id="v1" transform="translate(239.000000, 0.000000)">
			<g id="Group-3" transform="translate(0.000000, 44.000000)">
				<path id="LinkedIn" class="st0" d="M180,29.3h-6.6v-9.6c0-2.5-1-4.2-3.3-4.2c-1.7,0-2.7,1.2-3.2,2.3c-0.2,0.4-0.1,1-0.1,1.5v10
					h-6.6c0,0,0.1-17,0-18.5h6.6v2.9c0.4-1.3,2.5-3.1,5.8-3.1c4.2,0,7.4,2.7,7.4,8.4V29.3L180,29.3z M153.5,8.4L153.5,8.4
					c-2.2,0-3.5-1.4-3.5-3.2c0-1.8,1.4-3.2,3.6-3.2c2.2,0,3.5,1.4,3.5,3.2C157.1,7,155.7,8.4,153.5,8.4L153.5,8.4L153.5,8.4z
					 M150.8,10.7h5.8v18.5h-5.8V10.7L150.8,10.7z"/>
			</g>
		</g>
	</g>
</g>
</svg>
