<?xml version="1.0" encoding="UTF-8"?>
<svg width="19px" height="19px" viewBox="0 0 19 19" version="1.1" xmlns="http://www.w3.org/2000/svg" xmlns:xlink="http://www.w3.org/1999/xlink">
    <title>Tel</title>
    <g id="Style-Guide-DSK" stroke="none" stroke-width="1" fill="none" fill-rule="evenodd">
        <g id="IWC_Icons" transform="translate(-609.000000, -218.000000)" fill="#A28E53" fill-rule="nonzero">
            <g id="02_ICONS" transform="translate(137.000000, 94.000000)">
                <g id="Icons" transform="translate(0.000000, 123.000000)">
                    <path d="M474.068747,4.01943933 C472.856362,6.07020706 473.269637,9.52169183 475.34494,11.8210058 C476.226091,12.7972056 477.335267,13.8814787 478.568817,15.0020553 L479.322808,15.6778056 L480.265946,16.4996263 L480.838646,16.9850903 L480.980131,17.1014285 C481.820953,17.8600182 483.254219,18.6 485.06254,18.6 C485.29313,18.6 485.527715,18.5858999 485.759415,18.5581321 C487.87514,18.3039607 489.046552,17.1944725 489.569205,15.7049607 C489.672365,15.4120054 489.508293,15.0226863 489.200389,14.8312247 L489.103826,14.7800162 L485.857153,13.3449985 C485.754022,13.2995852 485.62242,13.273948 485.479271,13.273948 C485.22055,13.273948 484.961286,13.3556503 484.78619,13.4816739 L484.706049,13.5482061 L483.682714,14.534199 C483.452287,14.756324 483.081996,14.8911 482.732366,14.8911 C482.566561,14.8911 482.411468,14.8600914 482.281263,14.7944592 C481.310621,14.3104341 480.24397,13.5224169 479.142086,12.3607542 C478.169567,11.3344862 477.545207,10.4945596 477.194191,9.83069269 C476.99111,9.4460734 477.115973,8.8801306 477.405715,8.52288273 L477.488701,8.43091878 L478.399095,7.52598965 C478.64122,7.28522677 478.772388,6.8347654 478.717191,6.48145342 L478.687609,6.35411462 L477.663833,3.12118256 C477.542387,2.73787699 477.134988,2.4 476.764493,2.3997759 C475.810358,2.43172786 474.961629,2.80088769 474.321222,3.64344463 L474.187218,3.83128805 L474.068747,4.01943933 Z M473.668892,3.17966333 C474.467419,2.11573266 475.550674,1.63998886 476.751105,1.6 C477.454609,1.6 478.111451,2.10585656 478.375942,2.74154019 L478.426488,2.87960823 L479.450183,6.11228615 C479.640839,6.71264218 479.477576,7.4818907 479.070038,7.97583014 L478.963128,8.09332233 L478.05251,8.99847462 C477.93425,9.11588232 477.863032,9.3840536 477.901525,9.45695598 C478.216116,10.0519347 478.797574,10.8341468 479.722641,11.8103397 C480.75997,12.9039453 481.750959,13.6360651 482.639803,14.0793047 L482.688887,14.0891682 C482.701482,14.0903525 482.716079,14.0911 482.732366,14.0911 C482.853562,14.0911 482.986595,14.051502 483.072704,13.9992791 L483.127569,13.9581662 L484.150608,12.9724584 C484.475252,12.6588684 484.978404,12.473948 485.479271,12.473948 C485.667061,12.473948 485.849674,12.5003767 486.017509,12.5524587 L486.180062,12.613063 L489.427865,14.0485804 C490.167011,14.3767905 490.580552,15.2415125 490.323935,15.9702571 C489.707587,17.7267933 488.301571,19.058484 485.854723,19.3524345 C485.591424,19.3839894 485.325053,19.4 485.06254,19.4 C483.874373,19.4 482.76962,19.0928747 481.774509,18.5791079 C481.16353,18.2636649 480.713794,17.9386075 480.461395,17.710037 L479.882596,17.2245722 L479.129318,16.5730541 L478.450905,15.9729092 C477.031672,14.7025379 475.752447,13.4664213 474.751075,12.3570314 C472.441781,9.7984703 471.983508,5.95567497 473.389629,3.59632929 L473.522595,3.38600697 L473.668892,3.17966333 Z" id="Tel"></path>
                </g>
            </g>
        </g>
    </g>
</svg>