<?xml version="1.0" encoding="UTF-8"?>
<svg width="17px" height="19px" viewBox="0 0 17 19" version="1.1" xmlns="http://www.w3.org/2000/svg" xmlns:xlink="http://www.w3.org/1999/xlink">
    <title>Login</title>
    <g id="Header-(mob)" stroke="none" stroke-width="1" fill="none" fill-rule="evenodd">
        <g id="Header-(Mob)" transform="translate(-310.000000, -68.000000)" fill="#A28E53" fill-rule="nonzero">
            <g id="Header">
                <path d="M318.199627,68 C320.519223,68 322.399627,69.8804041 322.399627,72.2 C322.399627,73.9561046 321.321854,75.4604819 319.791685,76.0877546 C324.538242,76.6382725 326.754052,79.7812978 326.353075,85.390515 L326.327037,85.7168589 L326.25873,86.4 L310.140086,86.4 L310.084418,85.8506149 C309.527164,79.9537267 311.731895,76.6532287 316.606249,76.0875891 C315.0774,75.4604819 313.999627,73.9561046 313.999627,72.2 C313.999627,69.8804041 315.880031,68 318.199627,68 Z M318.198627,76.784 L317.911392,76.7873706 C312.870542,76.8847387 310.547385,79.5637736 310.831706,84.9742551 L310.850584,85.283427 L310.876627,85.615 L325.522627,85.615 L325.523987,85.6012439 C326.010407,79.9327831 323.844821,77.0549754 318.92849,76.8028255 L318.65253,76.7915174 L318.367454,76.7855424 L318.198627,76.784 Z M318.199627,68.8 C316.321859,68.8 314.799627,70.3222319 314.799627,72.2 C314.799627,74.0777681 316.321859,75.6 318.199627,75.6 C320.077395,75.6 321.599627,74.0777681 321.599627,72.2 C321.599627,70.3222319 320.077395,68.8 318.199627,68.8 Z" id="Login"></path>
            </g>
        </g>
    </g>
</svg>