<?xml version="1.0" encoding="utf-8"?>
<!-- Generator: Adobe Illustrator 19.2.0, SVG Export Plug-In . SVG Version: 6.00 Build 0)  -->
<svg version="1.1" id="Layer_1" xmlns="http://www.w3.org/2000/svg" xmlns:xlink="http://www.w3.org/1999/xlink" x="0px" y="0px"
	 viewBox="0 0 30 30" style="enable-background:new 0 0 30 30;" xml:space="preserve">
<style type="text/css">
	.st0{fill:#666666;}
</style>
<title>1D59FA06-3007-4F37-93B8-8A58A90D204D</title>
<desc>Created with sketchtool.</desc>
<g id="Symbols">
	<g id="share-page" transform="translate(-289.000000, -46.000000)">
		<g id="v1" transform="translate(239.000000, 0.000000)">
			<g id="Group-3" transform="translate(0.000000, 44.000000)">
				<path id="Twitter" class="st0" d="M79.4,7.9c-1.1,0.5-2.2,0.8-3.5,1c1.2-0.8,2.2-2,2.7-3.4c-1.2,0.7-2.5,1.2-3.8,1.5
					c-1.1-1.2-2.7-2-4.4-2c-3.3,0-6,2.8-6,6.2c0,0.5,0.1,1,0.2,1.4c-5-0.3-9.5-2.7-12.5-6.5c-0.5,0.9-0.8,2-0.8,3.1
					c0,2.1,1.1,4,2.7,5.2c-1,0-1.9-0.3-2.7-0.8v0.1c0,3,2.1,5.5,4.8,6.1c-0.5,0.1-1,0.2-1.6,0.2c-0.4,0-0.8,0-1.1-0.1
					c0.8,2.5,3,4.3,5.6,4.3c-2.1,1.7-4.7,2.7-7.5,2.7c-0.5,0-1,0-1.4-0.1c2.7,1.8,5.8,2.8,9.3,2.8c11.1,0,17.2-9.4,17.2-17.6
					c0-0.3,0-0.5,0-0.8C77.6,10.2,78.6,9.1,79.4,7.9"/>
			</g>
		</g>
	</g>
</g>
</svg>
