<?xml version="1.0" encoding="utf-8"?>
<!-- Generator: Adobe Illustrator 19.2.0, SVG Export Plug-In . SVG Version: 6.00 Build 0)  -->
<svg version="1.1" id="Layer_1" xmlns="http://www.w3.org/2000/svg" xmlns:xlink="http://www.w3.org/1999/xlink" x="0px" y="0px"
	 viewBox="0 0 30 30" style="enable-background:new 0 0 30 30;" xml:space="preserve">
<title>E6E2334E-4B34-4B18-B1D6-0D1B78475975</title>
<path d="M18.2,11.3l0.2,0.4l0.5,0.1l9.1,1.3l-0.5-1.5L20.9,18l-0.3,0.3l0.1,0.5l1.5,9l1.3-0.9l-8.1-4.2L15,22.4l-0.4,0.2l-8.1,4.2
	l1.3,0.9l1.5-9l0.1-0.5L9,18l-6.6-6.3L2,13.1l9.1-1.3l0.5-0.1l0.2-0.4l4-8.2h-1.6L18.2,11.3L18.2,11.3z M15,0.8l-0.8,1.6l-4.1,8.2
	l0.7-0.5l-9.1,1.3L0,11.6l1.3,1.2l6.6,6.3l-0.3-0.8l-1.5,9l-0.3,1.8l1.6-0.8l8.1-4.2h-0.8l8.1,4.2l1.6,0.8l-0.3-1.8l-1.5-9l-0.3,0.8
	l6.6-6.3l1.3-1.2l-1.8-0.3L19.3,10l0.7,0.5l-4.1-8.2C15.7,2.4,15,0.8,15,0.8z"/>
</svg>
