<?xml version="1.0" encoding="utf-8"?>
<!-- Generator: Adobe Illustrator 19.2.0, SVG Export Plug-In . SVG Version: 6.00 Build 0)  -->
<svg version="1.1" id="Layer_1" xmlns="http://www.w3.org/2000/svg" xmlns:xlink="http://www.w3.org/1999/xlink" x="0px" y="0px"
	 viewBox="0 0 30 30" style="enable-background:new 0 0 30 30;" xml:space="preserve">
<style type="text/css">
	.st0{fill:#666666;}
</style>
<title>C0F4F8E6-A895-4184-B553-07969AA64A7F</title>
<desc>Created with sketchtool.</desc>
<g id="Symbols">
	<g id="share-page" transform="translate(-602.000000, -46.000000)">
		<g id="v1" transform="translate(239.000000, 0.000000)">
			<g id="Group-3" transform="translate(0.000000, 44.000000)">
				<path id="Youtube" class="st0" d="M374.9,20.9l0-8.5l8.1,4.3L374.9,20.9z M392.7,11c0,0-0.3-2.1-1.2-3c-1.1-1.2-2.4-1.2-3-1.3
					C384.3,6.4,378,6.4,378,6.4h0c0,0-6.3,0-10.5,0.3c-0.6,0.1-1.9,0.1-3,1.3c-0.9,0.9-1.2,3-1.2,3s-0.3,2.4-0.3,4.9v2.3
					c0,2.4,0.3,4.9,0.3,4.9s0.3,2.1,1.2,3c1.1,1.2,2.6,1.2,3.3,1.3c2.4,0.2,10.2,0.3,10.2,0.3s6.3,0,10.5-0.3c0.6-0.1,1.9-0.1,3-1.3
					c0.9-0.9,1.2-3,1.2-3s0.3-2.4,0.3-4.9v-2.3C393,13.4,392.7,11,392.7,11L392.7,11z"/>
			</g>
		</g>
	</g>
</g>
</svg>
